<svg width="36" height="35" viewBox="0 0 36 35" fill="none" xmlns="http://www.w3.org/2000/svg">
<path d="M32.3334 19.7609L32.3416 19.7648C32.4695 19.0265 32.5314 18.2725 32.5314 17.5264C32.5314 16.8584 32.4778 16.1864 32.3787 15.5302C32.4778 16.1825 32.5273 16.8427 32.5273 17.5029C32.5273 18.2608 32.4613 19.0186 32.3334 19.7609ZM0.962139 13.0574C0.941508 13.0417 0.925003 13.0261 0.904372 13.0066C0.933255 13.0339 0.962139 13.0613 0.995148 13.0886L3.69778 15.2723V15.2684L0.962139 13.0574ZM23.1031 4.6194H23.1073L22.4677 1.34578C22.4594 1.30671 22.4512 1.27156 22.4388 1.2364C22.4429 1.25593 22.4512 1.27937 22.4553 1.2989L23.1031 4.6194ZM25.3313 25.9682L26.6269 24.9604L30.456 26.2456C31.1574 25.351 31.7474 24.39 32.2137 23.3704L29.1315 20.8742L29.4038 19.3077C29.5069 18.7178 29.5606 18.1123 29.5606 17.5068C29.5606 16.9013 29.5069 16.2958 29.4038 15.706L29.1356 14.1473L32.2178 11.651C31.7474 10.6354 31.1615 9.67046 30.4601 8.77588L26.631 10.0611L25.3354 9.05324C24.3492 8.28757 23.2475 7.68598 22.0633 7.26408L20.4913 6.70545L19.7527 2.91618C18.5873 2.79117 17.4108 2.79117 16.2454 2.91618L15.5069 6.71326L13.943 7.27189C12.7671 7.69379 11.6737 8.29539 10.6958 9.05715L9.40014 10.0689L5.54631 8.77197C4.84486 9.66655 4.25482 10.6275 3.78856 11.6471L6.90381 14.1668L6.63561 15.7294C6.53246 16.3115 6.48295 16.9091 6.48295 17.5068C6.48295 18.1006 6.53658 18.7022 6.63561 19.2843L6.90381 20.8469L3.78856 23.3665C4.25894 24.3822 4.84486 25.3471 5.54631 26.2417L9.40014 24.9448L10.6958 25.9565C11.6737 26.7183 12.7671 27.3199 13.943 27.7418L15.5027 28.3082L16.2413 32.1053C17.4049 32.2303 18.5891 32.2303 19.7486 32.1053L20.4871 28.316L22.0592 27.7574C23.2475 27.3355 24.3451 26.7339 25.3313 25.9682ZM18.0238 24.0033C16.7653 24.0033 15.5811 23.6986 14.5455 23.1634C12.2802 21.9993 10.7411 19.7296 10.7411 17.1162C10.7411 13.3191 13.9926 10.2408 18.0032 10.2408C20.7636 10.2408 23.1609 11.6979 24.3905 13.8426C24.9558 14.8192 25.2776 15.9403 25.2776 17.1357C25.2776 20.9289 22.0303 24.0033 18.0238 24.0033ZM5.42665 29.2575C5.19971 29.3317 4.96452 29.3473 4.7417 29.3044C4.9769 29.3512 5.22447 29.3434 5.46378 29.2653L8.82248 28.1324C8.81835 28.1285 8.8101 28.1246 8.80597 28.1207L5.42665 29.2575ZM35.036 13.0574L32.3334 15.245C32.3334 15.2528 32.3375 15.2645 32.3375 15.2723L35.036 13.0886C35.329 12.8503 35.494 12.5066 35.4981 12.1511C35.4857 12.4948 35.3207 12.8269 35.036 13.0574Z" fill="#C2C2C2"/>
<path d="M35.4899 22.7649C35.5105 22.9485 35.4899 23.1361 35.4197 23.3158L35.3826 23.4173C34.6367 25.3853 33.5228 27.21 32.094 28.8043L32.0198 28.8864C31.8467 29.0801 31.6154 29.2193 31.3567 29.2856C31.098 29.3519 30.8241 29.3421 30.5715 29.2575L27.2169 28.1285C25.9863 29.0884 24.5962 29.8488 23.1031 30.3786L22.4553 33.6991C22.4064 33.949 22.2784 34.1789 22.0883 34.3582C21.8981 34.5375 21.6549 34.6578 21.3908 34.7031L21.2794 34.7226C20.201 34.9072 19.1073 35.0001 18.0114 35H18.0238C19.1255 35 20.2272 34.9062 21.3 34.7226L21.4114 34.7031C21.6755 34.6578 21.9188 34.5375 22.1089 34.3582C22.2991 34.1789 22.4271 33.949 22.476 33.6991L23.1238 30.3826C24.6174 29.8513 25.9956 29.0973 27.2334 28.1363L30.5839 29.2653C30.8365 29.3499 31.1104 29.3597 31.3691 29.2934C31.6278 29.2271 31.859 29.0879 32.0321 28.8942L32.1064 28.8122C33.5423 27.2066 34.644 25.3979 35.3908 23.4329L35.428 23.3314C35.494 23.1478 35.5146 22.9525 35.4899 22.7649Z" fill="#C2C2C2"/>
<path d="M25.2652 17.1162C25.2652 15.9325 24.9475 14.8153 24.3905 13.8426C23.1609 11.6979 20.7636 10.2408 18.0032 10.2408C13.9926 10.2408 10.7411 13.3191 10.7411 17.1162C10.7411 19.7296 12.2802 21.9993 14.5455 23.1634C15.5729 23.6908 16.7488 23.9916 18.0032 23.9916C22.0138 23.9916 25.2652 20.9133 25.2652 17.1162ZM13.3819 17.1162C13.3819 15.9482 13.8646 14.8504 14.7353 14.0223C15.61 13.1941 16.7695 12.7409 18.0032 12.7409C19.2369 12.7409 20.3964 13.1941 21.2711 14.0223C21.701 14.4281 22.0418 14.9103 22.2741 15.4413C22.5064 15.9723 22.6254 16.5415 22.6245 17.1162C22.6245 18.2842 22.1417 19.3819 21.2711 20.2101C20.8425 20.6171 20.3331 20.9398 19.7723 21.1597C19.2114 21.3796 18.6102 21.4923 18.0032 21.4914C16.7695 21.4914 15.61 21.0344 14.7353 20.2101C14.3054 19.8043 13.9646 19.3221 13.7323 18.7911C13.5 18.2601 13.3809 17.6909 13.3819 17.1162Z" fill="black"/>
<path d="M21.3908 34.7031C21.6549 34.6578 21.8981 34.5375 22.0883 34.3582C22.2784 34.1789 22.4064 33.949 22.4553 33.6991L23.1031 30.3786C24.5962 29.8488 25.9863 29.0884 27.2169 28.1285L30.5715 29.2575C30.8241 29.3421 31.098 29.3519 31.3567 29.2856C31.6154 29.2193 31.8467 29.0801 32.0198 28.8864L32.094 28.8043C33.5299 27.1988 34.6358 25.3862 35.3826 23.4173L35.4197 23.3158C35.4899 23.1361 35.5105 22.9485 35.4899 22.7649C35.4527 22.4563 35.2959 22.1633 35.036 21.9485L32.3416 19.7648L32.3334 19.7609C32.4613 19.0186 32.5273 18.2608 32.5273 17.5029C32.5273 16.8427 32.4778 16.1786 32.3787 15.5302C32.3664 15.4442 32.3499 15.3583 32.3375 15.2723C32.3375 15.2645 32.3334 15.2528 32.3334 15.245L35.036 13.0574C35.3207 12.8269 35.4857 12.4948 35.4981 12.1511C35.5023 11.9948 35.4775 11.8346 35.4197 11.6823L35.3826 11.5807C34.6386 9.61195 33.5245 7.78688 32.094 6.1937L32.0198 6.11167C31.8462 5.9185 31.615 5.77964 31.3564 5.7134C31.0979 5.64715 30.8242 5.65662 30.5715 5.74055L27.2169 6.86952C25.9791 5.90853 24.6009 5.15068 23.1073 4.6194H23.1031L22.4553 1.2989C22.4512 1.27937 22.4471 1.25593 22.4388 1.2364C22.3792 1.00021 22.2485 0.785497 22.0624 0.61836C21.8764 0.451222 21.643 0.338862 21.3908 0.294938L21.2794 0.275406C19.1296 -0.091802 16.8685 -0.091802 14.7188 0.275406L14.6074 0.294938C14.3433 0.340241 14.1 0.460546 13.9098 0.639871C13.7197 0.819196 13.5917 1.04905 13.5428 1.2989L12.8909 4.63502C11.4091 5.16644 10.0293 5.92389 8.80598 6.87734L5.42665 5.74055C5.17399 5.65595 4.90011 5.64614 4.64142 5.71243C4.38273 5.77872 4.15146 5.91796 3.97836 6.11167L3.90409 6.1937C2.47538 7.78802 1.36144 9.61278 0.615541 11.5807L0.578405 11.6823C0.492421 11.9093 0.477439 12.155 0.535257 12.3899C0.593074 12.6248 0.721237 12.8389 0.904372 13.0066C0.925003 13.0222 0.941508 13.0417 0.962139 13.0574L3.69778 15.2684V15.2723C3.56987 16.0068 3.50798 16.7529 3.50798 17.499C3.50798 18.2491 3.56987 18.9991 3.69778 19.7296L0.962139 21.9407C0.758289 22.1059 0.61239 22.326 0.543845 22.5716C0.475299 22.8172 0.487353 23.0768 0.578405 23.3158L0.615541 23.4173C1.36238 25.3862 2.46819 27.2027 3.90409 28.8043L3.97836 28.8864C4.18055 29.109 4.44875 29.2536 4.7417 29.3044C4.96452 29.3434 5.19971 29.3317 5.42665 29.2575L8.80597 28.1207C8.8101 28.1246 8.81835 28.1285 8.82248 28.1324C10.0479 29.0817 11.4137 29.8356 12.8909 30.363L13.5428 33.6991C13.5917 33.949 13.7197 34.1789 13.9098 34.3582C14.1 34.5375 14.3433 34.6578 14.6074 34.7031L14.7188 34.7226C15.7957 34.9062 16.8974 35 17.9991 35H18.0114C19.109 35 20.2107 34.9062 21.2794 34.7226L21.3908 34.7031ZM19.7486 32.1053C18.5832 32.2303 17.4067 32.2303 16.2413 32.1053L15.5027 28.3082L13.943 27.7418C12.7671 27.3199 11.6737 26.7183 10.6958 25.9565L9.40014 24.9448L5.54631 26.2417C4.84486 25.3471 4.25894 24.3822 3.78856 23.3665L6.90381 20.8469L6.63561 19.2843C6.53658 18.7022 6.48295 18.1006 6.48295 17.5068C6.48295 16.9091 6.53246 16.3115 6.63561 15.7294L6.90381 14.1668L3.78856 11.6471C4.25482 10.6275 4.84486 9.66655 5.54631 8.77197L9.40014 10.0689L10.6958 9.05715C11.6737 8.29539 12.7671 7.69379 13.943 7.27189L15.5069 6.71326L16.2454 2.91618C17.4049 2.79117 18.5891 2.79117 19.7527 2.91618L20.4913 6.70545L22.0633 7.26408C23.2475 7.68598 24.3492 8.28757 25.3354 9.05324L26.631 10.0611L30.4601 8.77588C31.1615 9.67046 31.7474 10.6354 32.2178 11.651L29.1356 14.1473L29.4038 15.706C29.5069 16.2958 29.5606 16.9013 29.5606 17.5068C29.5606 18.1123 29.5069 18.7178 29.4038 19.3077L29.1315 20.8742L32.2137 23.3704C31.7464 24.3896 31.1566 25.3544 30.456 26.2456L26.6269 24.9604L25.3313 25.9682C24.3451 26.7339 23.2475 27.3355 22.0592 27.7574L20.4871 28.316L19.7486 32.1053Z" fill="black"/>
</svg>
