<svg width="32" height="32" viewBox="0 0 32 32" fill="none" xmlns="http://www.w3.org/2000/svg">
<path d="M28.7087 10L27.4469 28.165C27.3941 28.9309 26.9767 29.6516 26.2802 30.1789C25.5838 30.7062 24.6614 31 23.7025 31H8.2975C7.33863 31 6.41619 30.7062 5.71977 30.1789C5.02335 29.6516 4.60586 28.9309 4.55312 28.165L3.29125 10H28.7087ZM2.875 1H29.125C29.6223 1 30.0992 1.15804 30.4508 1.43934C30.8025 1.72064 31 2.10218 31 2.5V5.5C31 5.89782 30.8025 6.27936 30.4508 6.56066C30.0992 6.84196 29.6223 7 29.125 7H2.875C2.37772 7 1.90081 6.84196 1.54917 6.56066C1.19754 6.27936 1 5.89782 1 5.5V2.5C1 2.10218 1.19754 1.72064 1.54917 1.43934C1.90081 1.15804 2.37772 1 2.875 1ZM12.25 13C11.7527 13 11.2758 13.158 10.9242 13.4393C10.5725 13.7206 10.375 14.1022 10.375 14.5V25C10.375 25.3978 10.5725 25.7794 10.9242 26.0607C11.2758 26.342 11.7527 26.5 12.25 26.5C12.7473 26.5 13.2242 26.342 13.5758 26.0607C13.9275 25.7794 14.125 25.3978 14.125 25V14.5C14.125 14.1022 13.9275 13.7206 13.5758 13.4393C13.2242 13.158 12.7473 13 12.25 13ZM19.75 13C19.2527 13 18.7758 13.158 18.4242 13.4393C18.0725 13.7206 17.875 14.1022 17.875 14.5V25C17.875 25.3978 18.0725 25.7794 18.4242 26.0607C18.7758 26.342 19.2527 26.5 19.75 26.5C20.2473 26.5 20.7242 26.342 21.0758 26.0607C21.4275 25.7794 21.625 25.3978 21.625 25V14.5C21.625 14.1022 21.4275 13.7206 21.0758 13.4393C20.7242 13.158 20.2473 13 19.75 13Z" fill="#9E9E9E" stroke="black" stroke-width="1.5"/>
</svg>
